HIERARCHY
ROOT root
{
	OFFSET	0	13.1	24.9
	CHANNELS 6  Xposition Yposition Zposition Xrotation Yrotation Zrotation
	JOINT spine_1
	{
		OFFSET	0	9.99999	0
		CHANNELS 3  Xrotation Yrotation Zrotation
		JOINT spine_2
		{
			OFFSET	0	112	-10
			CHANNELS 3  Xrotation Yrotation Zrotation
			JOINT spine_3
			{
				OFFSET	0	206.5	19.3
				CHANNELS 3  Xrotation Yrotation Zrotation
				JOINT spine_4
				{
					OFFSET	0	110.4	14.6
					CHANNELS 3  Xrotation Yrotation Zrotation
					JOINT neck_1
					{
						OFFSET	0	71.8	-50.3
						CHANNELS 3  Xrotation Yrotation Zrotation
						JOINT neck_2
						{
							OFFSET	0	86.2	-25.8
							CHANNELS 3  Xrotation Yrotation Zrotation
							JOINT head_ee
							{
								OFFSET	0	179.8	-8.7
								CHANNELS 3  Xrotation Yrotation Zrotation
								End Site
								{
									OFFSET	1	0	0
								}
							}
						}
					}
					JOINT left_clavicle
					{
						OFFSET	-43.2	22.4	-70.8
						CHANNELS 3  Xrotation Yrotation Zrotation
						JOINT left_shoulder
						{
							OFFSET	-93.9	-5.79999	48.7
							CHANNELS 3  Xrotation Yrotation Zrotation
							JOINT left_elbow
							{
								OFFSET	-291.4	-30.8	15.2
								CHANNELS 3  Xrotation Yrotation Zrotation
								JOINT left_lowarm_twist
								{
									OFFSET	-110.7	-3.89999	13.6
									CHANNELS 3  Xrotation Yrotation Zrotation
									JOINT left_hand
									{
										OFFSET	-110.7	-3.89999	13.6
										CHANNELS 3  Xrotation Yrotation Zrotation
										JOINT left_ee
										{
											OFFSET	-80.8	-5.10001	12.1
											CHANNELS 3  Xrotation Yrotation Zrotation
											End Site
											{
												OFFSET	1	0	0
											}
										}
									}
								}
							}
						}
					}
					JOINT right_clavicle
					{
						OFFSET	43.2	22.4	-70.8
						CHANNELS 3  Xrotation Yrotation Zrotation
						JOINT right_shoulder
						{
							OFFSET	93.9	-5.79999	48.7
							CHANNELS 3  Xrotation Yrotation Zrotation
							JOINT right_elbow
							{
								OFFSET	291.4	-30.8	15.2
								CHANNELS 3  Xrotation Yrotation Zrotation
								JOINT right_lowarm_twist
								{
									OFFSET	110.7	-3.89999	13.6
									CHANNELS 3  Xrotation Yrotation Zrotation
									JOINT right_hand
									{
										OFFSET	110.7	-3.89999	13.6
										CHANNELS 3  Xrotation Yrotation Zrotation
										JOINT right_ee
										{
											OFFSET	80.8	-5.10001	12.1
											CHANNELS 3  Xrotation Yrotation Zrotation
											End Site
											{
												OFFSET	1	0	0
											}
										}
									}
								}
							}
						}
					}
				}
			}
		}
	}
	JOINT left_hip
	{
		OFFSET	-82.8	-127.5	0.300001
		CHANNELS 3  Xrotation Yrotation Zrotation
		JOINT left_knee
		{
			OFFSET	-28.2	-396.7	2.2
			CHANNELS 3  Xrotation Yrotation Zrotation
			JOINT left_ankle
			{
				OFFSET	-11.7	-411.3	35.4
				CHANNELS 3  Xrotation Yrotation Zrotation
				JOINT left_toes
				{
					OFFSET	0	-60	-88.6
					CHANNELS 3  Xrotation Yrotation Zrotation
					JOINT left_foot_ee
					{
						OFFSET	-22.5	-16.5	-42.2
						CHANNELS 3  Xrotation Yrotation Zrotation
						End Site
						{
							OFFSET	1	0	0
						}
					}
				}
			}
		}
	}
	JOINT right_hip
	{
		OFFSET	82.8	-127.5	0.300001
		CHANNELS 3  Xrotation Yrotation Zrotation
		JOINT right_knee
		{
			OFFSET	28.2	-396.7	2.2
			CHANNELS 3  Xrotation Yrotation Zrotation
			JOINT right_ankle
			{
				OFFSET	11.7	-411.3	35.4
				CHANNELS 3  Xrotation Yrotation Zrotation
				JOINT right_toes
				{
					OFFSET	0	-60	-88.6
					CHANNELS 3  Xrotation Yrotation Zrotation
					JOINT right_foot_ee
					{
						OFFSET	22.5	-16.5	-42.2
						CHANNELS 3  Xrotation Yrotation Zrotation
						End Site
						{
							OFFSET	1	0	0
						}
					}
				}
			}
		}
	}
}
MOTION
Frames: 13
Frame Time: 0.02
1811.9 677.721 -1377.77 -21.3392 51.4825 18.4588 5.5326 0.0832089 -0.0666435 5.5326 0.087281 -0.0612136 5.53251 0.0937385 -0.0507758 5.53251 0.0845429 -0.0649428 -8.24032 8.96819 -1.09152 -8.27291 17.527 0.922921 -0.0 0.0 -0.0 2.83232 8.09128 5.96632 19.1522 15.1447 73.1644 1.47976 -36.2402 0.484257 34.4054 -0.0906871 -4.3288 5.96626 32.638 51.0899 -0.0 0.0 -0.0 0.150314 -9.51879 -1.38861 20.4301 -82.6998 -51.4921 0.523413 14.5359 -0.0667539 81.8663 4.0554 8.71145 -2.36854 -17.1242 7.49057 0.0 0.0 0.0 8.48839 -0.778738 2.11989 -22.2429 0.262255 3.38188 40.0177 -6.35579 -4.95488 -5.52309 0.0 0.0 -0.0 0.0 -0.0 43.3582 24.4953 -12.2009 0.487739 0.020391 0.072069 -12.7756 -23.3179 -1.97477 29.8149 -0.0 -0.0 0.0 0.0 0.0 
1777.52 673.189 -1390.76 -22.5408 53.588 20.82 5.29823 -0.122428 -0.284568 5.29827 -0.104072 -0.291782 5.29877 -0.0686139 -0.302092 5.29866 -0.115462 -0.287465 -2.16036 9.60294 -3.43941 -1.87856 20.0742 -2.36685 -0.0 0.0 -0.0 2.48537 10.5921 5.50478 15.2782 10.0795 74.6375 1.54314 -37.3927 0.522243 32.5505 -0.019495 -4.10266 6.43885 33.2767 55.7013 -0.0 0.0 -0.0 0.0454501 -8.39217 -1.07549 40.8895 -82.571 -28.9099 0.424774 11.8831 -0.0442075 82.1194 4.08505 8.7247 -2.24489 -13.9899 8.30403 0.0 0.0 0.0 6.80653 -0.981308 0.811601 -22.4374 0.258728 3.41151 39.522 -9.60593 -4.9762 -4.66585 0.0 0.0 -0.0 0.0 -0.0 41.6192 26.1212 -11.9793 -1.19044 -0.0471834 -0.176593 -13.8321 -19.9653 -2.11174 31.0383 -0.0 -0.0 0.0 0.0 0.0 
1753.06 676.068 -1400.21 -24.9592 54.2079 23.2221 5.00254 -0.0828793 -0.570821 5.00272 -0.0463892 -0.574938 5.00303 0.0253281 -0.57625 5.00257 -0.0659962 -0.573018 0.176773 11.1704 -4.55638 0.747357 23.6064 -3.86301 -0.0 0.0 -0.0 2.66785 12.5477 5.92185 12.3778 8.88242 75.0368 1.48477 -36.3327 0.487227 33.0454 -0.0377691 -4.16321 7.16925 34.4595 64.4791 -0.0 0.0 -0.0 1.13232 -7.02701 -2.86033 53.0716 -81.9654 -15.6409 0.412515 11.5495 -0.0417181 84.3788 4.3523 8.83709 -1.50237 -12.1137 4.51096 0.0 0.0 0.0 6.22183 -2.08536 1.46817 -20.168 0.293604 3.06506 37.8168 -10.3271 -4.83975 -3.72659 0.0 0.0 -0.0 0.0 -0.0 44.4647 26.3168 -12.3984 -8.00442 -0.24587 -1.20284 -9.41347 -20.578 -1.43307 34.1241 -0.0 -0.0 0.0 0.0 0.0 
1737.43 678.057 -1406.87 -24.2976 54.5024 23.1644 4.879 -0.0682263 -0.612621 4.87921 -0.0291061 -0.615721 4.87935 0.048867 -0.614468 4.87882 -0.0487882 -0.614474 1.84099 10.1133 -5.56775 2.51122 22.4365 -5.40561 -0.0 0.0 -0.0 3.27545 13.0492 6.95595 9.50341 9.04348 74.3265 1.40367 -34.8104 0.440045 34.0966 -0.0783259 -4.29131 7.35382 34.4736 67.5133 -0.0 0.0 -0.0 2.36505 -7.28347 -5.08486 60.98 -79.2358 -8.26497 0.292517 8.24521 -0.0210839 84.7073 4.39151 8.85254 -1.11544 -10.8853 2.60931 0.0 0.0 0.0 5.48963 -3.99762 1.7709 -18.8158 0.30785 2.85808 38.2787 -14.6748 -5.00044 -3.12841 0.0 0.0 -0.0 0.0 -0.0 45.7936 26.7892 -13.594 -12.2577 -0.30754 -1.85241 -8.42004 -19.1013 -1.27356 34.4805 -0.0 -0.0 0.0 0.0 0.0 
1717.45 681.825 -1413.79 -24.1934 56.8847 23.9363 4.76889 -0.140739 -0.885293 4.76933 -0.0841229 -0.892453 4.77029 0.0309329 -0.895875 4.76919 -0.110936 -0.889519 2.15177 10.7444 -7.26074 3.08202 24.9269 -7.36447 -0.0 0.0 -0.0 3.85428 11.5544 7.88437 7.19995 8.57044 74.253 1.18105 -30.3289 0.320107 35.2385 -0.125041 -4.42961 7.37446 29.8641 70.2165 -0.0 0.0 -0.0 2.80614 -7.29464 -5.87447 73.125 -78.2582 2.11091 0.272265 7.68143 -0.0182782 85.089 4.43718 8.87022 -0.688364 -7.58845 1.30825 0.0 0.0 0.0 7.80829 -4.52312 0.925984 -22.9998 0.247966 3.49714 38.1492 -20.1013 -5.18722 -3.06647 0.0 0.0 -0.0 0.0 -0.0 45.3253 27.6161 -13.549 -15.9958 -0.321828 -2.42567 -9.2906 -17.8103 -1.4015 35.314 -0.0 -0.0 0.0 0.0 0.0 
1697.79 683.556 -1424.91 -24.1058 57.9574 23.8736 4.64827 -0.0825336 -1.04503 4.64888 -0.015872 -1.04816 4.64871 0.120798 -1.0413 4.6472 -0.0451631 -1.04731 1.55896 10.3443 -10.1045 2.75859 26.5989 -10.4894 -0.0 0.0 -0.0 4.08343 10.1897 8.24531 5.46618 8.37291 73.617 0.863802 -23.166 0.177049 37.2514 -0.214072 -4.67104 7.3602 26.7722 70.7668 -0.0 0.0 -0.0 3.1728 -8.19558 -6.57535 77.3752 -75.8023 5.33282 0.201961 5.71333 -0.0100778 84.8896 4.41331 8.86103 -0.340149 -5.5789 -0.102904 0.0 0.0 0.0 9.18344 -6.26745 1.3019 -25.9949 0.176517 3.95118 38.139 -22.228 -5.2816 -2.29219 0.0 0.0 -0.0 0.0 -0.0 44.8635 28.1288 -13.9352 -18.7606 -0.308329 -2.84961 -6.32097 -16.7263 -0.94653 36.5202 -0.0 -0.0 0.0 0.0 0.0 
1674.28 689.078 -1431.92 -23.4159 58.2518 23.6918 4.5194 -0.100838 -1.20648 4.52021 -0.0238675 -1.21045 4.52013 0.136714 -1.20294 4.51811 -0.05497 -1.20944 1.08496 9.94034 -12.0036 2.46702 27.4497 -12.5565 -0.0 0.0 -0.0 4.18282 10.0588 8.41524 3.73911 8.44302 73.6548 0.607828 -16.7572 0.089525 38.6272 -0.279793 -4.83423 7.34611 24.4634 70.6932 -0.0 0.0 -0.0 3.63139 -9.03785 -7.42072 79.6769 -73.858 6.38207 0.184138 5.21203 -0.008381 84.6155 4.38055 8.84825 -0.0888134 -4.07771 -1.12285 0.0 0.0 0.0 10.9316 -8.14259 1.26942 -28.1679 0.109869 4.27798 38.044 -23.5622 -5.3378 -1.7529 0.0 0.0 -0.0 0.0 -0.0 43.7006 28.9708 -13.8396 -20.9666 -0.282897 -3.18713 -4.37711 -15.783 -0.651768 37.2296 -0.0 -0.0 0.0 0.0 0.0 
1650.9 695.34 -1449.47 -20.7695 57.8616 21.5732 4.49974 0.0613142 -1.01848 4.50031 0.125995 -1.01251 4.49767 0.259434 -0.986789 4.49633 0.100342 -1.01537 -4.25148 10.6859 -9.41501 -3.65207 26.6797 -8.08627 -0.0 0.0 -0.0 3.18132 12.8009 6.79 0.656731 8.52478 73.8302 0.498576 -13.8735 0.0606591 39.7394 -0.335777 -4.96498 7.37867 22.5178 71.3755 -0.0 0.0 -0.0 3.92408 -12.4351 -8.02325 74.9379 -72.8737 0.235201 0.180232 5.10205 -0.00802991 83.9201 4.29769 8.81512 -0.10562 -2.55686 -0.373793 0.0 0.0 0.0 13.8427 -11.1895 0.232279 -33.3761 -0.0999816 5.04941 37.8357 -23.3835 -5.30854 -0.434809 0.0 0.0 -0.0 0.0 -0.0 39.7173 29.2129 -14.777 -19.0777 -0.305473 -2.89819 -1.68819 -17.8989 -0.2514 37.3221 -0.0 -0.0 0.0 0.0 0.0 
1632.16 699.423 -1464.14 -19.947 58.1748 20.9139 4.77564 0.10014 -1.00231 4.77618 0.163713 -0.993907 4.77292 0.289718 -0.964739 4.77165 0.133728 -0.998383 -7.13242 10.8103 -8.54259 -6.85984 26.2014 -6.38035 -0.0 0.0 -0.0 2.6669 12.2056 5.90254 -1.92736 8.83756 73.7575 0.280864 -7.92101 0.0194454 40.273 -0.363539 -5.02733 7.33205 21.1368 70.1618 -0.0 0.0 -0.0 4.25691 -13.8291 -8.60056 72.0954 -73.0813 -3.34818 0.18614 5.26839 -0.00856387 83.4512 4.24205 8.79222 -0.0901647 -1.03603 0.164325 0.0 0.0 0.0 15.37 -12.8027 -0.144151 -38.2014 -0.356325 5.74484 37.4782 -23.5868 -5.2837 0.306386 -0.0 -0.0 -0.0 0.0 -0.0 36.8419 29.4689 -14.805 -17.604 -0.316465 -2.67234 -0.442663 -17.2005 -0.0656145 37.3807 -0.0 -0.0 0.0 0.0 0.0 
1597.83 703.443 -1480.94 -17.515 60.1611 18.3588 4.90886 -0.234287 -0.987685 4.90938 -0.170966 -1.00059 4.91192 -0.043857 -1.01414 4.91055 -0.203463 -0.994491 -9.657 10.6546 -7.50697 -9.64863 25.1092 -4.73092 -0.0 0.0 -0.0 4.44264 15.7876 8.91316 -7.72677 7.81836 67.838 0.20758 -5.87117 0.0106448 40.8631 -0.394913 -5.09596 7.23005 21.4237 68.1379 -0.0 0.0 -0.0 4.25207 -15.4658 -8.60559 70.6302 -72.8403 -6.00794 0.197668 5.59264 -0.00965482 83.3414 4.22905 8.78679 -0.540327 -1.90461 2.78863 0.0 0.0 0.0 17.043 -13.9447 0.361058 -41.6946 -0.578081 6.23386 35.04 -25.6897 -5.14315 0.289788 -0.0 -0.0 -0.0 0.0 -0.0 33.6623 28.9811 -14.4352 -21.3114 -0.277748 -3.23979 5.37439 -18.6732 0.788546 37.8924 -0.0 -0.0 0.0 0.0 0.0 
1582.8 703.001 -1488.67 -17.6183 60.7999 17.8809 5.24639 -0.280846 -0.893089 5.24681 -0.22345 -0.909148 5.24996 -0.112909 -0.92937 5.24884 -0.258263 -0.899879 -11.3975 10.7882 -6.73757 -11.5562 24.7877 -3.51552 -0.0 0.0 -0.0 4.86889 17.3914 9.57767 -11.8813 7.60597 66.482 0.197311 -5.58262 0.00962013 41.1697 -0.411495 -5.1315 7.12921 21.6992 66.3268 -0.0 0.0 -0.0 4.68273 -16.0616 -9.29733 70.9725 -72.3092 -7.07899 0.194665 5.50823 -0.00936442 83.7276 4.27482 8.80577 -1.24277 -3.44708 6.77981 0.0 0.0 0.0 17.7466 -12.8458 0.478691 -44.2768 -0.761028 6.58635 33.2927 -27.6602 -5.0609 0.157543 -0.0 -0.0 -0.0 0.0 -0.0 32.0963 27.6703 -14.0085 -22.7281 -0.25327 -3.45579 8.6714 -22.508 1.27901 36.6517 -0.0 -0.0 0.0 0.0 0.0 
1569.28 704.189 -1491.82 -17.3971 62.7278 18.0851 5.19076 -0.379165 -0.953882 5.19121 -0.317702 -0.976073 5.19619 -0.197534 -1.00729 5.19495 -0.35413 -0.963456 -14.318 10.1085 -4.57495 -14.6626 22.0517 -1.01002 -0.0 0.0 -0.0 5.02577 18.0249 9.81098 -15.4314 10.3917 64.1658 0.19921 -5.63601 0.00980576 43.1221 -0.521535 -5.35571 7.00546 21.371 64.2303 -0.0 0.0 -0.0 4.97305 -15.9022 -9.7652 72.0494 -71.1315 -8.13569 0.184866 5.23251 -0.00844729 82.9416 4.18179 8.76681 -1.20964 -2.46004 7.00276 0.0 0.0 0.0 18.6735 -14.7456 1.08179 -45.6682 -0.866171 6.77283 30.9738 -28.2004 -4.82077 0.0887122 -0.0 -0.0 -0.0 0.0 -0.0 30.6925 27.4417 -13.6465 -23.8502 -0.230095 -3.62642 9.95926 -23.2792 1.46839 36.0193 -0.0 -0.0 0.0 0.0 0.0 
1551.83 703.885 -1496.63 -15.96 64.0941 16.6969 5.04853 -0.302643 -0.98192 5.04904 -0.239551 -0.999186 5.05276 -0.114596 -1.02109 5.05141 -0.274411 -0.99018 -13.9576 9.71313 -5.35314 -14.2473 21.781 -1.95994 -0.0 0.0 -0.0 5.66512 15.0368 10.909 -19.4984 13.435 62.9697 0.187361 -5.30274 0.00867634 42.0707 -0.461324 -5.23543 6.76151 20.355 60.5043 -0.0 0.0 -0.0 5.14882 -15.5627 -10.0545 74.9831 -70.7329 -8.05022 0.180984 5.12325 -0.00809702 82.4937 4.12902 8.74404 -1.96048 -3.23933 11.6852 0.0 0.0 0.0 21.6246 -10.3095 -0.457396 -47.457 -1.00798 7.00879 30.5865 -28.2514 -4.77681 -0.176815 0.0 0.0 -0.0 0.0 -0.0 29.5262 27.2136 -13.5797 -25.6374 -0.186293 -3.89718 10.9026 -25.7879 1.6238 35.4654 -0.0 -0.0 0.0 0.0 0.0 
